<svg width="300" height="300" viewBox="0 0 300 300" fill="none" xmlns="http://www.w3.org/2000/svg">
<g id="Group 310">
<g id="Rectangle 889" filter="url(#filter0_dddd_609_189)">
<rect x="80" y="29" width="140" height="140" rx="32.3077" fill="#FEFBFF"/>
</g>
<g id="Group 288">
<path id="Vector" d="M168 87C168 82.2261 166.104 77.6477 162.728 74.2721C159.352 70.8964 154.774 69 150 69C145.226 69 140.648 70.8964 137.272 74.2721C133.896 77.6477 132 82.2261 132 87C132 108 123 114 123 114H177C177 114 168 108 168 87Z" stroke="url(#paint0_linear_609_189)" stroke-width="5.96174" stroke-linecap="round" stroke-linejoin="round"/>
<path id="Vector_2" d="M155.19 126C154.662 126.909 153.905 127.664 152.994 128.189C152.083 128.713 151.051 128.989 150 128.989C148.948 128.989 147.916 128.713 147.005 128.189C146.094 127.664 145.337 126.909 144.81 126" stroke="url(#paint1_linear_609_189)" stroke-width="5.96174" stroke-linecap="round" stroke-linejoin="round"/>
</g>
</g>
<defs>
<filter id="filter0_dddd_609_189" x="0" y="0" width="300" height="300" filterUnits="userSpaceOnUse" color-interpolation-filters="sRGB">
<feFlood flood-opacity="0" result="BackgroundImageFix"/>
<feColorMatrix in="SourceAlpha" type="matrix" values="0 0 0 0 0 0 0 0 0 0 0 0 0 0 0 0 0 0 127 0" result="hardAlpha"/>
<feOffset dy="2.30969"/>
<feGaussianBlur stdDeviation="1.81152"/>
<feColorMatrix type="matrix" values="0 0 0 0 0.662745 0 0 0 0 0.313726 0 0 0 0 0.768627 0 0 0 0.0278729 0"/>
<feBlend mode="normal" in2="BackgroundImageFix" result="effect1_dropShadow_609_189"/>
<feColorMatrix in="SourceAlpha" type="matrix" values="0 0 0 0 0 0 0 0 0 0 0 0 0 0 0 0 0 0 127 0" result="hardAlpha"/>
<feOffset dy="6.38599"/>
<feGaussianBlur stdDeviation="5.00862"/>
<feColorMatrix type="matrix" values="0 0 0 0 0.662745 0 0 0 0 0.313726 0 0 0 0 0.768627 0 0 0 0.04 0"/>
<feBlend mode="normal" in2="effect1_dropShadow_609_189" result="effect2_dropShadow_609_189"/>
<feColorMatrix in="SourceAlpha" type="matrix" values="0 0 0 0 0 0 0 0 0 0 0 0 0 0 0 0 0 0 127 0" result="hardAlpha"/>
<feOffset dy="15.375"/>
<feGaussianBlur stdDeviation="12.0588"/>
<feColorMatrix type="matrix" values="0 0 0 0 0.662745 0 0 0 0 0.313726 0 0 0 0 0.768627 0 0 0 0.0521271 0"/>
<feBlend mode="normal" in2="effect2_dropShadow_609_189" result="effect3_dropShadow_609_189"/>
<feColorMatrix in="SourceAlpha" type="matrix" values="0 0 0 0 0 0 0 0 0 0 0 0 0 0 0 0 0 0 127 0" result="hardAlpha"/>
<feOffset dy="51"/>
<feGaussianBlur stdDeviation="40"/>
<feColorMatrix type="matrix" values="0 0 0 0 0.662745 0 0 0 0 0.313726 0 0 0 0 0.768627 0 0 0 0.08 0"/>
<feBlend mode="normal" in2="effect3_dropShadow_609_189" result="effect4_dropShadow_609_189"/>
<feBlend mode="normal" in="SourceGraphic" in2="effect4_dropShadow_609_189" result="shape"/>
</filter>
<linearGradient id="paint0_linear_609_189" x1="168.63" y1="75.075" x2="140.358" y2="114.181" gradientUnits="userSpaceOnUse">
<stop stop-color="#A950C4"/>
<stop offset="1" stop-color="#82269E"/>
</linearGradient>
<linearGradient id="paint1_linear_609_189" x1="153.581" y1="126.404" x2="152.65" y2="130.127" gradientUnits="userSpaceOnUse">
<stop stop-color="#A950C4"/>
<stop offset="1" stop-color="#82269E"/>
</linearGradient>
</defs>
</svg>
