<svg width="300" height="300" viewBox="0 0 300 300" fill="none" xmlns="http://www.w3.org/2000/svg">
<g id="Group 304">
<g id="Rectangle 886" filter="url(#filter0_dddd_609_232)">
<rect x="80" y="29" width="140" height="140" rx="32.3077" fill="#FEFBFF"/>
</g>
<g id="Group 296">
<path id="Vector" d="M123 117V99C123 91.8392 125.845 84.9716 130.908 79.9081C135.972 74.8446 142.839 72 150 72C157.161 72 164.028 74.8446 169.092 79.9081C174.155 84.9716 177 91.8392 177 99V117" stroke="url(#paint0_linear_609_232)" stroke-width="6" stroke-linecap="round" stroke-linejoin="round"/>
<path id="Vector_2" d="M177 120C177 121.591 176.368 123.117 175.243 124.243C174.117 125.368 172.591 126 171 126H168C166.409 126 164.883 125.368 163.757 124.243C162.632 123.117 162 121.591 162 120V111C162 109.409 162.632 107.883 163.757 106.757C164.883 105.632 166.409 105 168 105H177V120ZM123 120C123 121.591 123.632 123.117 124.757 124.243C125.883 125.368 127.409 126 129 126H132C133.591 126 135.117 125.368 136.243 124.243C137.368 123.117 138 121.591 138 120V111C138 109.409 137.368 107.883 136.243 106.757C135.117 105.632 133.591 105 132 105H123V120Z" stroke="url(#paint1_linear_609_232)" stroke-width="6" stroke-linecap="round" stroke-linejoin="round"/>
</g>
</g>
<defs>
<filter id="filter0_dddd_609_232" x="0" y="0" width="300" height="300" filterUnits="userSpaceOnUse" color-interpolation-filters="sRGB">
<feFlood flood-opacity="0" result="BackgroundImageFix"/>
<feColorMatrix in="SourceAlpha" type="matrix" values="0 0 0 0 0 0 0 0 0 0 0 0 0 0 0 0 0 0 127 0" result="hardAlpha"/>
<feOffset dy="2.30969"/>
<feGaussianBlur stdDeviation="1.81152"/>
<feColorMatrix type="matrix" values="0 0 0 0 0.662745 0 0 0 0 0.313726 0 0 0 0 0.768627 0 0 0 0.0278729 0"/>
<feBlend mode="normal" in2="BackgroundImageFix" result="effect1_dropShadow_609_232"/>
<feColorMatrix in="SourceAlpha" type="matrix" values="0 0 0 0 0 0 0 0 0 0 0 0 0 0 0 0 0 0 127 0" result="hardAlpha"/>
<feOffset dy="6.38599"/>
<feGaussianBlur stdDeviation="5.00862"/>
<feColorMatrix type="matrix" values="0 0 0 0 0.662745 0 0 0 0 0.313726 0 0 0 0 0.768627 0 0 0 0.04 0"/>
<feBlend mode="normal" in2="effect1_dropShadow_609_232" result="effect2_dropShadow_609_232"/>
<feColorMatrix in="SourceAlpha" type="matrix" values="0 0 0 0 0 0 0 0 0 0 0 0 0 0 0 0 0 0 127 0" result="hardAlpha"/>
<feOffset dy="15.375"/>
<feGaussianBlur stdDeviation="12.0588"/>
<feColorMatrix type="matrix" values="0 0 0 0 0.662745 0 0 0 0 0.313726 0 0 0 0 0.768627 0 0 0 0.0521271 0"/>
<feBlend mode="normal" in2="effect2_dropShadow_609_232" result="effect3_dropShadow_609_232"/>
<feColorMatrix in="SourceAlpha" type="matrix" values="0 0 0 0 0 0 0 0 0 0 0 0 0 0 0 0 0 0 127 0" result="hardAlpha"/>
<feOffset dy="51"/>
<feGaussianBlur stdDeviation="40"/>
<feColorMatrix type="matrix" values="0 0 0 0 0.662745 0 0 0 0 0.313726 0 0 0 0 0.768627 0 0 0 0.08 0"/>
<feBlend mode="normal" in2="effect3_dropShadow_609_232" result="effect4_dropShadow_609_232"/>
<feBlend mode="normal" in="SourceGraphic" in2="effect4_dropShadow_609_232" result="shape"/>
</filter>
<linearGradient id="paint0_linear_609_232" x1="168.63" y1="78.075" x2="140.358" y2="117.181" gradientUnits="userSpaceOnUse">
<stop stop-color="#A950C4"/>
<stop offset="1" stop-color="#82269E"/>
</linearGradient>
<linearGradient id="paint1_linear_609_232" x1="168.63" y1="107.835" x2="160.213" y2="132.783" gradientUnits="userSpaceOnUse">
<stop stop-color="#A950C4"/>
<stop offset="1" stop-color="#82269E"/>
</linearGradient>
</defs>
</svg>
