<svg width="22" height="37" viewBox="0 0 22 37" fill="none" xmlns="http://www.w3.org/2000/svg">
<g id="Group 289">
<path id="Vector" d="M11 2V35" stroke="url(#paint0_linear_1436_66)" stroke-width="3" stroke-linecap="round" stroke-linejoin="round"/>
<path id="Vector_2" d="M18.5 8H7.25C5.85761 8 4.52226 8.55312 3.53769 9.53769C2.55312 10.5223 2 11.8576 2 13.25C2 14.6424 2.55312 15.9777 3.53769 16.9623C4.52226 17.9469 5.85761 18.5 7.25 18.5H14.75C16.1424 18.5 17.4777 19.0531 18.4623 20.0377C19.4469 21.0223 20 22.3576 20 23.75C20 25.1424 19.4469 26.4777 18.4623 27.4623C17.4777 28.4469 16.1424 29 14.75 29H2" stroke="url(#paint1_linear_1436_66)" stroke-width="3" stroke-linecap="round" stroke-linejoin="round"/>
</g>
<defs>
<linearGradient id="paint0_linear_1436_66" x1="11.845" y1="6.455" x2="10.3216" y2="6.50821" gradientUnits="userSpaceOnUse">
<stop stop-color="#A950C4"/>
<stop offset="1" stop-color="#82269E"/>
</linearGradient>
<linearGradient id="paint1_linear_1436_66" x1="17.21" y1="10.835" x2="3.31694" y2="24.5614" gradientUnits="userSpaceOnUse">
<stop stop-color="#A950C4"/>
<stop offset="1" stop-color="#82269E"/>
</linearGradient>
</defs>
</svg>
