<svg width="300" height="300" viewBox="0 0 300 300" fill="none" xmlns="http://www.w3.org/2000/svg">
<g id="Group 313">
<g id="Rectangle 881" filter="url(#filter0_dddd_609_253)">
<rect x="80" y="29" width="140" height="140" rx="32.3077" fill="#FEFBFF"/>
</g>
<g id="Group 300">
<path id="Vector" d="M177 110.994V86.9938C176.999 85.9417 176.721 84.9083 176.195 83.9973C175.668 83.0864 174.911 82.3299 174 81.8038L153 69.8038C152.088 69.2772 151.053 69 150 69C148.947 69 147.912 69.2772 147 69.8038L126 81.8038C125.089 82.3299 124.332 83.0864 123.805 83.9973C123.279 84.9083 123.001 85.9417 123 86.9938V110.994C123.001 112.046 123.279 113.079 123.805 113.99C124.332 114.901 125.089 115.658 126 116.184L147 128.184C147.912 128.71 148.947 128.988 150 128.988C151.053 128.988 152.088 128.71 153 128.184L174 116.184C174.911 115.658 175.668 114.901 176.195 113.99C176.721 113.079 176.999 112.046 177 110.994Z" stroke="url(#paint0_linear_609_253)" stroke-width="6" stroke-linecap="round" stroke-linejoin="round"/>
<path id="Vector_2" d="M123.81 83.874L150 99.024L176.19 83.874" stroke="url(#paint1_linear_609_253)" stroke-width="6" stroke-linecap="round" stroke-linejoin="round"/>
<path id="Vector_3" d="M150 129.234V98.9941" stroke="url(#paint2_linear_609_253)" stroke-width="6" stroke-linecap="round" stroke-linejoin="round"/>
</g>
</g>
<defs>
<filter id="filter0_dddd_609_253" x="0" y="0" width="300" height="300" filterUnits="userSpaceOnUse" color-interpolation-filters="sRGB">
<feFlood flood-opacity="0" result="BackgroundImageFix"/>
<feColorMatrix in="SourceAlpha" type="matrix" values="0 0 0 0 0 0 0 0 0 0 0 0 0 0 0 0 0 0 127 0" result="hardAlpha"/>
<feOffset dy="2.30969"/>
<feGaussianBlur stdDeviation="1.81152"/>
<feColorMatrix type="matrix" values="0 0 0 0 0.662745 0 0 0 0 0.313726 0 0 0 0 0.768627 0 0 0 0.0278729 0"/>
<feBlend mode="normal" in2="BackgroundImageFix" result="effect1_dropShadow_609_253"/>
<feColorMatrix in="SourceAlpha" type="matrix" values="0 0 0 0 0 0 0 0 0 0 0 0 0 0 0 0 0 0 127 0" result="hardAlpha"/>
<feOffset dy="6.38599"/>
<feGaussianBlur stdDeviation="5.00862"/>
<feColorMatrix type="matrix" values="0 0 0 0 0.662745 0 0 0 0 0.313726 0 0 0 0 0.768627 0 0 0 0.04 0"/>
<feBlend mode="normal" in2="effect1_dropShadow_609_253" result="effect2_dropShadow_609_253"/>
<feColorMatrix in="SourceAlpha" type="matrix" values="0 0 0 0 0 0 0 0 0 0 0 0 0 0 0 0 0 0 127 0" result="hardAlpha"/>
<feOffset dy="15.375"/>
<feGaussianBlur stdDeviation="12.0588"/>
<feColorMatrix type="matrix" values="0 0 0 0 0.662745 0 0 0 0 0.313726 0 0 0 0 0.768627 0 0 0 0.0521271 0"/>
<feBlend mode="normal" in2="effect2_dropShadow_609_253" result="effect3_dropShadow_609_253"/>
<feColorMatrix in="SourceAlpha" type="matrix" values="0 0 0 0 0 0 0 0 0 0 0 0 0 0 0 0 0 0 127 0" result="hardAlpha"/>
<feOffset dy="51"/>
<feGaussianBlur stdDeviation="40"/>
<feColorMatrix type="matrix" values="0 0 0 0 0.662745 0 0 0 0 0.313726 0 0 0 0 0.768627 0 0 0 0.08 0"/>
<feBlend mode="normal" in2="effect3_dropShadow_609_253" result="effect4_dropShadow_609_253"/>
<feBlend mode="normal" in="SourceGraphic" in2="effect4_dropShadow_609_253" result="shape"/>
</filter>
<linearGradient id="paint0_linear_609_253" x1="168.63" y1="77.0983" x2="128.968" y2="118.252" gradientUnits="userSpaceOnUse">
<stop stop-color="#A950C4"/>
<stop offset="1" stop-color="#82269E"/>
</linearGradient>
<linearGradient id="paint1_linear_609_253" x1="168.071" y1="85.9193" x2="163.339" y2="104.779" gradientUnits="userSpaceOnUse">
<stop stop-color="#A950C4"/>
<stop offset="1" stop-color="#82269E"/>
</linearGradient>
<linearGradient id="paint2_linear_609_253" x1="150.845" y1="103.077" x2="149.322" y2="103.135" gradientUnits="userSpaceOnUse">
<stop stop-color="#A950C4"/>
<stop offset="1" stop-color="#82269E"/>
</linearGradient>
</defs>
</svg>
