<svg width="300" height="300" viewBox="0 0 300 300" fill="none" xmlns="http://www.w3.org/2000/svg">
<g id="Group 311">
<g id="Rectangle 888" filter="url(#filter0_dddd_609_184)">
<rect x="80" y="29" width="140" height="140" rx="32.3077" fill="#FEFBFF"/>
</g>
<g id="Group 287">
<path id="Vector" d="M150 108C154.971 108 159 103.971 159 99C159 94.0294 154.971 90 150 90C145.029 90 141 94.0294 141 99C141 103.971 145.029 108 150 108Z" stroke="url(#paint0_linear_609_184)" stroke-width="5.96174" stroke-linecap="round" stroke-linejoin="round"/>
<path id="Vector_2" d="M172.2 108C171.801 108.905 171.682 109.909 171.858 110.882C172.034 111.855 172.498 112.753 173.19 113.46L173.37 113.64C173.928 114.197 174.37 114.859 174.672 115.587C174.974 116.316 175.13 117.097 175.13 117.885C175.13 118.673 174.974 119.454 174.672 120.183C174.37 120.911 173.928 121.573 173.37 122.13C172.813 122.688 172.151 123.13 171.423 123.432C170.694 123.734 169.913 123.89 169.125 123.89C168.337 123.89 167.556 123.734 166.827 123.432C166.099 123.13 165.437 122.688 164.88 122.13L164.7 121.95C163.993 121.258 163.095 120.794 162.122 120.618C161.149 120.442 160.145 120.561 159.24 120.96C158.353 121.34 157.596 121.972 157.063 122.777C156.53 123.581 156.244 124.525 156.24 125.49V126C156.24 127.591 155.608 129.117 154.483 130.243C153.357 131.368 151.831 132 150.24 132C148.649 132 147.123 131.368 145.997 130.243C144.872 129.117 144.24 127.591 144.24 126V125.73C144.217 124.737 143.895 123.774 143.318 122.966C142.74 122.158 141.932 121.543 141 121.2C140.095 120.801 139.091 120.682 138.118 120.858C137.145 121.034 136.247 121.498 135.54 122.19L135.36 122.37C134.803 122.928 134.141 123.37 133.413 123.672C132.684 123.974 131.903 124.13 131.115 124.13C130.327 124.13 129.546 123.974 128.817 123.672C128.089 123.37 127.427 122.928 126.87 122.37C126.312 121.813 125.87 121.151 125.568 120.423C125.266 119.694 125.11 118.913 125.11 118.125C125.11 117.337 125.266 116.556 125.568 115.827C125.87 115.099 126.312 114.437 126.87 113.88L127.05 113.7C127.742 112.993 128.206 112.095 128.382 111.122C128.558 110.149 128.439 109.145 128.04 108.24C127.66 107.353 127.028 106.596 126.223 106.063C125.419 105.53 124.475 105.244 123.51 105.24H123C121.409 105.24 119.883 104.608 118.757 103.483C117.632 102.357 117 100.831 117 99.24C117 97.6487 117.632 96.1226 118.757 94.9974C119.883 93.8721 121.409 93.24 123 93.24H123.27C124.263 93.2168 125.226 92.8954 126.034 92.3175C126.842 91.7397 127.457 90.9322 127.8 90C128.199 89.0952 128.318 88.0914 128.142 87.1182C127.966 86.145 127.502 85.247 126.81 84.54L126.63 84.36C126.072 83.8028 125.63 83.141 125.328 82.4126C125.026 81.6843 124.87 80.9035 124.87 80.115C124.87 79.3265 125.026 78.5457 125.328 77.8174C125.63 77.089 126.072 76.4272 126.63 75.87C127.187 75.3121 127.849 74.8696 128.577 74.5676C129.306 74.2657 130.087 74.1103 130.875 74.1103C131.663 74.1103 132.444 74.2657 133.173 74.5676C133.901 74.8696 134.563 75.3121 135.12 75.87L135.3 76.05C136.007 76.7416 136.905 77.2056 137.878 77.382C138.851 77.5585 139.855 77.4393 140.76 77.04H141C141.887 76.6597 142.644 76.0283 143.177 75.2234C143.71 74.4185 143.996 73.4754 144 72.51V72C144 70.4087 144.632 68.8826 145.757 67.7574C146.883 66.6321 148.409 66 150 66C151.591 66 153.117 66.6321 154.243 67.7574C155.368 68.8826 156 70.4087 156 72V72.27C156.004 73.2354 156.29 74.1785 156.823 74.9834C157.356 75.7883 158.113 76.4197 159 76.8C159.905 77.1993 160.909 77.3185 161.882 77.142C162.855 76.9656 163.753 76.5016 164.46 75.81L164.64 75.63C165.197 75.0721 165.859 74.6296 166.587 74.3276C167.316 74.0257 168.097 73.8703 168.885 73.8703C169.673 73.8703 170.454 74.0257 171.183 74.3276C171.911 74.6296 172.573 75.0721 173.13 75.63C173.688 76.1872 174.13 76.849 174.432 77.5774C174.734 78.3057 174.89 79.0865 174.89 79.875C174.89 80.6635 174.734 81.4443 174.432 82.1726C174.13 82.901 173.688 83.5628 173.13 84.12L172.95 84.3C172.258 85.007 171.794 85.905 171.618 86.8782C171.442 87.8514 171.561 88.8552 171.96 89.76V90C172.34 90.8873 172.972 91.6441 173.777 92.1771C174.581 92.7101 175.525 92.9961 176.49 93H177C178.591 93 180.117 93.6321 181.243 94.7574C182.368 95.8826 183 97.4087 183 99C183 100.591 182.368 102.117 181.243 103.243C180.117 104.368 178.591 105 177 105H176.73C175.765 105.004 174.821 105.29 174.017 105.823C173.212 106.356 172.58 107.113 172.2 108V108Z" stroke="url(#paint1_linear_609_184)" stroke-width="5.96174" stroke-linecap="round" stroke-linejoin="round"/>
</g>
</g>
<defs>
<filter id="filter0_dddd_609_184" x="0" y="0" width="300" height="300" filterUnits="userSpaceOnUse" color-interpolation-filters="sRGB">
<feFlood flood-opacity="0" result="BackgroundImageFix"/>
<feColorMatrix in="SourceAlpha" type="matrix" values="0 0 0 0 0 0 0 0 0 0 0 0 0 0 0 0 0 0 127 0" result="hardAlpha"/>
<feOffset dy="2.30969"/>
<feGaussianBlur stdDeviation="1.81152"/>
<feColorMatrix type="matrix" values="0 0 0 0 0.662745 0 0 0 0 0.313726 0 0 0 0 0.768627 0 0 0 0.0278729 0"/>
<feBlend mode="normal" in2="BackgroundImageFix" result="effect1_dropShadow_609_184"/>
<feColorMatrix in="SourceAlpha" type="matrix" values="0 0 0 0 0 0 0 0 0 0 0 0 0 0 0 0 0 0 127 0" result="hardAlpha"/>
<feOffset dy="6.38599"/>
<feGaussianBlur stdDeviation="5.00862"/>
<feColorMatrix type="matrix" values="0 0 0 0 0.662745 0 0 0 0 0.313726 0 0 0 0 0.768627 0 0 0 0.04 0"/>
<feBlend mode="normal" in2="effect1_dropShadow_609_184" result="effect2_dropShadow_609_184"/>
<feColorMatrix in="SourceAlpha" type="matrix" values="0 0 0 0 0 0 0 0 0 0 0 0 0 0 0 0 0 0 127 0" result="hardAlpha"/>
<feOffset dy="15.375"/>
<feGaussianBlur stdDeviation="12.0588"/>
<feColorMatrix type="matrix" values="0 0 0 0 0.662745 0 0 0 0 0.313726 0 0 0 0 0.768627 0 0 0 0.0521271 0"/>
<feBlend mode="normal" in2="effect2_dropShadow_609_184" result="effect3_dropShadow_609_184"/>
<feColorMatrix in="SourceAlpha" type="matrix" values="0 0 0 0 0 0 0 0 0 0 0 0 0 0 0 0 0 0 127 0" result="hardAlpha"/>
<feOffset dy="51"/>
<feGaussianBlur stdDeviation="40"/>
<feColorMatrix type="matrix" values="0 0 0 0 0.662745 0 0 0 0 0.313726 0 0 0 0 0.768627 0 0 0 0.08 0"/>
<feBlend mode="normal" in2="effect3_dropShadow_609_184" result="effect4_dropShadow_609_184"/>
<feBlend mode="normal" in="SourceGraphic" in2="effect4_dropShadow_609_184" result="shape"/>
</filter>
<linearGradient id="paint0_linear_609_184" x1="156.21" y1="92.43" x2="144.42" y2="106.02" gradientUnits="userSpaceOnUse">
<stop stop-color="#A950C4"/>
<stop offset="1" stop-color="#82269E"/>
</linearGradient>
<linearGradient id="paint1_linear_609_184" x1="172.77" y1="74.91" x2="129.54" y2="124.74" gradientUnits="userSpaceOnUse">
<stop stop-color="#A950C4"/>
<stop offset="1" stop-color="#82269E"/>
</linearGradient>
</defs>
</svg>
