<svg width="60" height="60" viewBox="0 0 60 60" fill="none" xmlns="http://www.w3.org/2000/svg">
<g id="icon-instagram" clip-path="url(#clip0_4320_2343)">
<g id="Group 170">
<path id="Vector" d="M43.5 3H16.5C9.04416 3 3 9.04416 3 16.5V43.5C3 50.9558 9.04416 57 16.5 57H43.5C50.9558 57 57 50.9558 57 43.5V16.5C57 9.04416 50.9558 3 43.5 3Z" stroke="white" stroke-width="5.96" stroke-linecap="round" stroke-linejoin="round"/>
<path id="Vector_2" d="M40.8011 28.2986C41.1343 30.5457 40.7505 32.8406 39.7042 34.8569C38.658 36.8733 37.0026 38.5084 34.9735 39.5297C32.9444 40.551 30.6449 40.9065 28.4021 40.5456C26.1593 40.1847 24.0874 39.1258 22.4811 37.5195C20.8748 35.9132 19.8159 33.8414 19.455 31.5986C19.0942 29.3558 19.4496 27.0563 20.4709 25.0272C21.4923 22.9981 23.1274 21.3427 25.1437 20.2964C27.1601 19.2502 29.455 18.8664 31.7021 19.1996C33.9942 19.5395 36.1162 20.6075 37.7546 22.246C39.3931 23.8845 40.4612 26.0065 40.8011 28.2986Z" stroke="white" stroke-width="5.96" stroke-linecap="round" stroke-linejoin="round"/>
<path id="Vector_3" d="M44.8501 15.1475H44.8786" stroke="white" stroke-width="5.96" stroke-linecap="round" stroke-linejoin="round"/>
</g>
</g>
<defs>
<clipPath id="clip0_4320_2343">
<rect width="60" height="60" fill="white"/>
</clipPath>
</defs>
</svg>