<svg width="74" height="60" viewBox="0 0 74 60" fill="none" xmlns="http://www.w3.org/2000/svg">
<g id="icon-twitter" clip-path="url(#clip0_4320_2360)">
<path id="Vector" d="M70.814 3.03026C67.8622 5.06305 64.5939 6.61781 61.1351 7.63467C59.2786 5.55068 56.8114 4.0736 54.0671 3.40321C51.3228 2.73281 48.4338 2.90145 45.7909 3.8863C43.1479 4.87115 40.8785 6.62471 39.2897 8.90981C37.7008 11.1949 36.8691 13.9013 36.907 16.6629V19.6723C31.49 19.8095 26.1223 18.6365 21.2821 16.258C16.4418 13.8794 12.2792 10.3691 9.16491 6.03968C9.16491 6.03968 -3.16491 33.1244 24.5772 45.1621C18.2289 49.3691 10.6665 51.4786 3 51.1809C30.7421 66.228 64.6491 51.1809 64.6491 16.5726C64.6462 15.7344 64.5637 14.8982 64.4025 14.0748C67.5484 11.0458 69.7685 7.22151 70.814 3.03026Z" stroke="white" stroke-width="5.96" stroke-linecap="round" stroke-linejoin="round"/>
</g>
<defs>
<clipPath id="clip0_4320_2360">
<rect width="74" height="60" fill="white"/>
</clipPath>
</defs>
</svg>
