<svg width="54" height="54" viewBox="0 0 54 54" fill="none" xmlns="http://www.w3.org/2000/svg">
<g id="icon-whatsapp" clip-path="url(#clip0_4320_2362)">
<path id="Vector" d="M27.1086 0C12.2925 0 0.217086 12.015 0.217086 26.7569C0.217086 31.4821 1.46533 36.072 3.799 40.122L0 54L14.2462 50.274C18.1809 52.4071 22.604 53.541 27.1086 53.541C41.9246 53.541 54 41.5261 54 26.7841C54 19.629 51.2049 12.906 46.1307 7.857C41.0562 2.78101 34.2994 0 27.1086 0ZM27.1356 4.50901C33.1055 4.50901 38.6954 6.83101 42.9286 11.043C47.1347 15.255 49.4684 20.8441 49.4684 26.7841C49.4684 39.0421 39.4281 49.0051 27.1086 49.0051C23.0925 49.0051 19.1578 47.9521 15.7387 45.9L14.9246 45.441L6.45828 47.6551L8.71055 39.447L8.16785 38.5831C5.94272 35.1 4.74874 30.969 4.74874 26.7569C4.77588 14.499 14.7889 4.50901 27.1356 4.50901ZM17.5839 14.391C17.1497 14.391 16.4171 14.553 15.793 15.228C15.196 15.903 13.4322 17.55 13.4322 20.817C13.4322 24.1111 15.8472 27.27 16.1457 27.729C16.5256 28.188 20.9215 34.9381 27.6785 37.8001C29.2794 38.529 30.5275 38.934 31.5046 39.2311C33.1055 39.7441 34.5708 39.663 35.7378 39.5011C37.0401 39.312 39.6995 37.881 40.2693 36.315C40.8392 34.749 40.8392 33.4261 40.6765 33.129C40.4865 32.859 40.0522 32.6971 39.3739 32.4C38.6954 32.022 35.3849 30.402 34.788 30.186C34.1639 29.9701 33.7839 29.862 33.2682 30.51C32.8341 31.185 31.5316 32.6971 31.1518 33.129C30.7447 33.588 30.3648 33.642 29.7135 33.318C29.008 32.9671 26.8372 32.265 24.2865 29.997C22.2785 28.2151 20.9487 26.028 20.5418 25.353C20.2161 24.705 20.5146 24.3001 20.8401 24.003C21.1387 23.7061 21.5728 23.22 21.8442 22.815C22.1969 22.437 22.3055 22.1401 22.5226 21.708C22.7398 21.249 22.6312 20.871 22.4682 20.547C22.3055 20.2501 20.9487 16.902 20.3788 15.579C19.8361 14.283 19.2934 14.445 18.8593 14.418C18.4794 14.418 18.0452 14.391 17.5839 14.391Z" fill="white"/>
</g>
<defs>
<clipPath id="clip0_4320_2362">
<rect width="54" height="54" fill="white"/>
</clipPath>
</defs>
</svg>