<svg width="60" height="60" viewBox="0 0 60 60" fill="none" xmlns="http://www.w3.org/2000/svg">
<g id="icon-youtube" clip-path="url(#clip0_4320_2364)">
<g id="Group 169">
<path id="Vector" d="M55.8696 11.4528C55.578 9.79509 54.9842 8.27625 54.1482 7.04967C53.3121 5.82309 52.2634 4.93221 51.108 4.46701C46.8864 3 30 3 30 3C30 3 13.1136 3 8.89201 4.60673C7.73658 5.07193 6.68788 5.96281 5.85183 7.18939C5.01578 8.41597 4.42199 9.93481 4.13044 11.5925C3.35782 17.6895 2.97989 23.8746 3.0014 30.0699C2.97386 36.3118 3.35181 42.544 4.13044 48.6869C4.45186 50.2931 5.05896 51.7542 5.89306 52.929C6.72716 54.1037 7.76008 54.9525 8.89201 55.3933C13.1136 57 30 57 30 57C30 57 46.8864 57 51.108 55.3933C52.2634 54.9281 53.3121 54.0372 54.1482 52.8106C54.9842 51.584 55.578 50.0652 55.8696 48.4075C56.6362 42.3564 57.0141 36.2185 56.9986 30.0699C57.0261 23.8279 56.6482 17.5957 55.8696 11.4528Z" stroke="white" stroke-width="5.96" stroke-linecap="round" stroke-linejoin="round"/>
<path id="Vector_2" d="M24.4771 41.4914L38.59 30.0697L24.4771 18.6479V41.4914Z" stroke="white" stroke-width="5.96" stroke-linecap="round" stroke-linejoin="round"/>
</g>
</g>
<defs>
<clipPath id="clip0_4320_2364">
<rect width="60" height="60" fill="white"/>
</clipPath>
</defs>
</svg>
